<svg xmlns="http://www.w3.org/2000/svg" viewBox="0 0 200 200"><title>tab_order</title><path d="M155.6,20.75H43.92A8.24,8.24,0,0,0,35.69,29V172.7a8.24,8.24,0,0,0,8.24,8.24H155.6a8.24,8.24,0,0,0,8.24-8.24V29A8.24,8.24,0,0,0,155.6,20.75ZM145.53,149.88a8.24,8.24,0,0,1-8.24,8.24H62.23A8.24,8.24,0,0,1,54,149.88V148a8.24,8.24,0,0,1,8.24-8.24h75.06a8.24,8.24,0,0,1,8.24,8.24v1.83h0Zm0-36.83a8.24,8.24,0,0,1-8.24,8.24H62.23A8.24,8.24,0,0,1,54,113v-1.83A8.24,8.24,0,0,1,62.23,103h75.06a8.24,8.24,0,0,1,8.24,8.24V113h0Zm0-36.83a8.24,8.24,0,0,1-8.24,8.24H62.23A8.24,8.24,0,0,1,54,76.22V74.39a8.24,8.24,0,0,1,8.24-8.24h75.06a8.24,8.24,0,0,1,8.24,8.24v1.83h0Z"/></svg>