<svg xmlns="http://www.w3.org/2000/svg" viewBox="0 0 200 200"><title>tab_fight</title><path d="M126.17,133.8l-2.27,11.08a2.31,2.31,0,0,0,2.26,2.77h35.15c9.89-.21,11.56-4.26,14.61-14.39,0-.06,0-0.13,0-0.19l11.11-52.62a2.31,2.31,0,0,0-2.26-2.78H98.57a2.31,2.31,0,0,0-2.26,1.86L81.2,159q-2.1,13.72,12.32,13.73H168.8a2.31,2.31,0,0,0,1.31-.41l11.18-7.72a2.31,2.31,0,0,0-1.31-4.21H116a2.36,2.36,0,0,0-.42,0c-5.2.9-6.92-2.24-5.19-8.2,0-.06,0-0.12,0-0.18l11.85-59.9a2.31,2.31,0,0,1,2.26-1.86h30A2.31,2.31,0,0,1,156.74,93l-7.12,34.25a2.36,2.36,0,0,1-.26.68c-1.72,4.75-3.59,5.56-9.37,5.84H126.17M80.35,90.67l5.36-1.2a2.31,2.31,0,0,0,1.76-1.81l3.3-15.09A2.31,2.31,0,0,0,88,69.83a2.31,2.31,0,0,1-2.79-2.57l2-14.2a2.31,2.31,0,0,1,2.29-2h2.28a2.31,2.31,0,0,0,2.28-2l1.44-10a2.31,2.31,0,0,0-2.28-2.63H92.41a2.31,2.31,0,0,1-2.26-2.79L91,29.48a2.31,2.31,0,0,0-2.26-2.79H62.11a2.31,2.31,0,0,0-2.25,1.81l-1.32,6.11a2.31,2.31,0,0,1-2.26,1.82h-15a2.31,2.31,0,0,0-2.28,2l-1.44,10a2.31,2.31,0,0,0,2.28,2.64H53.39a2.31,2.31,0,0,1,2.28,2.63l-3.6,25.14a2.31,2.31,0,0,1-1.71,1.91l-17,4.68a2.32,2.32,0,0,0-1.66,1.8l-3.27,15a2.31,2.31,0,0,0,2.85,2.72l12.82-3.45A2.31,2.31,0,0,1,47,104l-6,48a2.22,2.22,0,0,0,0,.24q-0.13,8.86-6.83,7.54a2.3,2.3,0,0,0-.47,0H21.91a2.31,2.31,0,0,0-1.75.81L13,168.88a2.31,2.31,0,0,0,1.75,3.81H57q13.37,1.43,14.29-12.91s0-.09,0-0.14l9.08-69m37.24-64L100,68.07a2.31,2.31,0,0,0,2.12,3.21h20.24a2.31,2.31,0,0,0,2-1.22l14.49-27.52a2.31,2.31,0,0,1,2-1.23h8.76a2.31,2.31,0,0,1,2.24,1.77l6.38,26.44a2.31,2.31,0,0,0,2.24,1.77h23.76a2.31,2.31,0,0,0,2.24-2.84l-9.51-40a2.31,2.31,0,0,0-2.24-1.77H117.59Z"/></svg>