<svg xmlns="http://www.w3.org/2000/svg" viewBox="0 0 200 200"><title>tab_manage</title><path d="M168.23,176.12H116a6.53,6.53,0,0,1-6.53-6.53V117.35a6.53,6.53,0,0,1,6.53-6.53h52.24a6.53,6.53,0,0,1,6.53,6.53v52.24A6.53,6.53,0,0,1,168.23,176.12Zm0-84.88H116a6.53,6.53,0,0,1-6.53-6.53V32.46A6.53,6.53,0,0,1,116,25.93h52.24a6.53,6.53,0,0,1,6.53,6.53V84.7A6.53,6.53,0,0,1,168.23,91.23ZM83.35,176.12H31.11a6.53,6.53,0,0,1-6.53-6.53V117.35a6.53,6.53,0,0,1,6.53-6.53H83.35a6.53,6.53,0,0,1,6.53,6.53v52.24A6.53,6.53,0,0,1,83.35,176.12Zm0-84.88H31.11a6.53,6.53,0,0,1-6.53-6.53V32.46a6.53,6.53,0,0,1,6.53-6.53H83.35a6.53,6.53,0,0,1,6.53,6.53V84.7A6.53,6.53,0,0,1,83.35,91.23Z"/></svg>