<svg xmlns="http://www.w3.org/2000/svg" viewBox="0 0 200 200"><title>tab_setting</title><path d="M174.12,116.76H160.29a60.28,60.28,0,0,1-5.49,13.11l9.69,9.5a11.08,11.08,0,0,1,0,15.89l-8.11,7.94a11.63,11.63,0,0,1-16.21,0l-9.69-9.51a62.84,62.84,0,0,1-13.37,5.4v13.55a11.3,11.3,0,0,1-11.41,11.18H94.3a11.3,11.3,0,0,1-11.41-11.18V159.09a63.37,63.37,0,0,1-13.81-5.65l-10,9.76a11.63,11.63,0,0,1-16.21,0l-8.11-7.94a11.08,11.08,0,0,1-.22-15.67l0.22-.22,10.14-9.93a59.82,59.82,0,0,1-5.23-12.67H25.88a11.28,11.28,0,0,1-11.4-11.18V94.41a11.29,11.29,0,0,1,11.4-11.18H39.71a60.41,60.41,0,0,1,5.49-13.1L34.8,59.93A11.08,11.08,0,0,1,34.8,44l8.11-7.94a11.63,11.63,0,0,1,16.21,0L69.53,46.3a62.33,62.33,0,0,1,13.37-5.39V27.35A11.29,11.29,0,0,1,94.3,16.19h11.4a11.29,11.29,0,0,1,11.41,11.17V40.91A63.17,63.17,0,0,1,130,46l10.14-9.93a11.63,11.63,0,0,1,16.21,0L164.49,44a11.08,11.08,0,0,1,0,15.89l-10,9.76a60.5,60.5,0,0,1,5.76,13.54h13.83a11.3,11.3,0,0,1,11.4,11.18v11.17A11.29,11.29,0,0,1,174.12,116.76ZM100,66.47c-18.88,0-34.2,15-34.2,33.53s15.32,33.53,34.2,33.53,34.21-15,34.21-33.53S118.89,66.47,100,66.47Z"/></svg>