<svg xmlns="http://www.w3.org/2000/svg" style="width:0; height:0; visibility:hidden;">
    <symbol id="tab_fight" viewBox="0 0 200 200">
      <title>tab_fight</title><path d="M126.17 133.8l-2.27 11.08a2.31 2.31 0 0 0 2.26 2.77h35.15c9.89-.21 11.56-4.26 14.61-14.39v-.19l11.11-52.62a2.31 2.31 0 0 0-2.26-2.78h-86.2a2.31 2.31 0 0 0-2.26 1.86L81.2 159q-2.1 13.72 12.32 13.73h75.28a2.31 2.31 0 0 0 1.31-.41l11.18-7.72a2.31 2.31 0 0 0-1.31-4.21H116a2.36 2.36 0 0 0-.42 0c-5.2.9-6.92-2.24-5.19-8.2v-.18l11.85-59.9a2.31 2.31 0 0 1 2.26-1.86h30a2.31 2.31 0 0 1 2.24 2.75l-7.12 34.25a2.36 2.36 0 0 1-.26.68c-1.72 4.75-3.59 5.56-9.37 5.84h-13.82m-45.82-43.1l5.36-1.2a2.31 2.31 0 0 0 1.76-1.81l3.3-15.09A2.31 2.31 0 0 0 88 69.83a2.31 2.31 0 0 1-2.79-2.57l2-14.2a2.31 2.31 0 0 1 2.29-2h2.28a2.31 2.31 0 0 0 2.28-2l1.44-10a2.31 2.31 0 0 0-2.28-2.63h-.81a2.31 2.31 0 0 1-2.26-2.79l.85-4.16a2.31 2.31 0 0 0-2.26-2.79H62.11a2.31 2.31 0 0 0-2.25 1.81l-1.32 6.11a2.31 2.31 0 0 1-2.26 1.82h-15a2.31 2.31 0 0 0-2.28 2l-1.44 10a2.31 2.31 0 0 0 2.28 2.64h13.55a2.31 2.31 0 0 1 2.28 2.63l-3.6 25.14a2.31 2.31 0 0 1-1.71 1.91l-17 4.68a2.32 2.32 0 0 0-1.66 1.8l-3.27 15a2.31 2.31 0 0 0 2.85 2.72l12.82-3.45A2.31 2.31 0 0 1 47 104l-6 48a2.22 2.22 0 0 0 0 .24q-.13 8.86-6.83 7.54a2.3 2.3 0 0 0-.47 0H21.91a2.31 2.31 0 0 0-1.75.81L13 168.88a2.31 2.31 0 0 0 1.75 3.81H57q13.37 1.43 14.29-12.91v-.14l9.08-69m37.24-64L100 68.07a2.31 2.31 0 0 0 2.12 3.21h20.24a2.31 2.31 0 0 0 2-1.22l14.49-27.52a2.31 2.31 0 0 1 2-1.23h8.76a2.31 2.31 0 0 1 2.24 1.77l6.38 26.44a2.31 2.31 0 0 0 2.24 1.77h23.76a2.31 2.31 0 0 0 2.24-2.84l-9.51-40a2.31 2.31 0 0 0-2.24-1.77h-57.13z"/>
    </symbol>
    <symbol id="tab_manage" viewBox="0 0 200 200">
      <title>tab_manage</title><path d="M168.23 176.12H116a6.53 6.53 0 0 1-6.53-6.53v-52.24a6.53 6.53 0 0 1 6.53-6.53h52.24a6.53 6.53 0 0 1 6.53 6.53v52.24a6.53 6.53 0 0 1-6.54 6.53zm0-84.88H116a6.53 6.53 0 0 1-6.53-6.53V32.46a6.53 6.53 0 0 1 6.53-6.53h52.24a6.53 6.53 0 0 1 6.53 6.53V84.7a6.53 6.53 0 0 1-6.54 6.53zm-84.88 84.88H31.11a6.53 6.53 0 0 1-6.53-6.53v-52.24a6.53 6.53 0 0 1 6.53-6.53h52.24a6.53 6.53 0 0 1 6.53 6.53v52.24a6.53 6.53 0 0 1-6.53 6.53zm0-84.88H31.11a6.53 6.53 0 0 1-6.53-6.53V32.46a6.53 6.53 0 0 1 6.53-6.53h52.24a6.53 6.53 0 0 1 6.53 6.53V84.7a6.53 6.53 0 0 1-6.53 6.53z"/>
    </symbol>
    <symbol id="tab_order" viewBox="0 0 200 200">
      <title>tab_order</title><path d="M155.6 20.75H43.92A8.24 8.24 0 0 0 35.69 29v143.7a8.24 8.24 0 0 0 8.24 8.24H155.6a8.24 8.24 0 0 0 8.24-8.24V29a8.24 8.24 0 0 0-8.24-8.25zm-10.07 129.13a8.24 8.24 0 0 1-8.24 8.24H62.23a8.24 8.24 0 0 1-8.23-8.24V148a8.24 8.24 0 0 1 8.24-8.24h75.06a8.24 8.24 0 0 1 8.24 8.24v1.83zm0-36.83a8.24 8.24 0 0 1-8.24 8.24H62.23A8.24 8.24 0 0 1 54 113v-1.83a8.24 8.24 0 0 1 8.23-8.17h75.06a8.24 8.24 0 0 1 8.24 8.24V113zm0-36.83a8.24 8.24 0 0 1-8.24 8.24H62.23A8.24 8.24 0 0 1 54 76.22v-1.83a8.24 8.24 0 0 1 8.24-8.24h75.06a8.24 8.24 0 0 1 8.24 8.24v1.83z"/>
    </symbol>
    <symbol id="tab_setting" viewBox="0 0 200 200">
      <title>tab_setting</title><path d="M174.12 116.76h-13.83a60.28 60.28 0 0 1-5.49 13.11l9.69 9.5a11.08 11.08 0 0 1 0 15.89l-8.11 7.94a11.63 11.63 0 0 1-16.21 0l-9.69-9.51a62.84 62.84 0 0 1-13.37 5.4v13.55a11.3 11.3 0 0 1-11.41 11.18H94.3a11.3 11.3 0 0 1-11.41-11.18v-13.55a63.37 63.37 0 0 1-13.81-5.65l-10 9.76a11.63 11.63 0 0 1-16.21 0l-8.11-7.94a11.08 11.08 0 0 1-.22-15.67l.22-.22 10.14-9.93a59.82 59.82 0 0 1-5.23-12.67H25.88a11.28 11.28 0 0 1-11.4-11.18V94.41a11.29 11.29 0 0 1 11.4-11.18h13.83a60.41 60.41 0 0 1 5.49-13.1l-10.4-10.2a11.08 11.08 0 0 1 0-15.93l8.11-7.94a11.63 11.63 0 0 1 16.21 0L69.53 46.3a62.33 62.33 0 0 1 13.37-5.39V27.35a11.29 11.29 0 0 1 11.4-11.16h11.4a11.29 11.29 0 0 1 11.41 11.17v13.55A63.17 63.17 0 0 1 130 46l10.14-9.93a11.63 11.63 0 0 1 16.21 0l8.14 7.93a11.08 11.08 0 0 1 0 15.89l-10 9.76a60.5 60.5 0 0 1 5.76 13.54h13.83a11.3 11.3 0 0 1 11.4 11.18v11.17a11.29 11.29 0 0 1-11.36 11.22zM100 66.47c-18.88 0-34.2 15-34.2 33.53s15.32 33.53 34.2 33.53 34.21-15 34.21-33.53S118.89 66.47 100 66.47z"/>
    </symbol></svg>